<?xml version="1.0" encoding="UTF-8" standalone="no"?>
<!-- Created with Inkscape (http://www.inkscape.org/) -->

<svg
   width="170"
   height="220"
   version="1.1"
   viewBox="0 0 170 220"
   id="svg20"
   sodipodi:docname="read_online.svg"
   inkscape:version="1.4.2 (f4327f4, 2025-05-13)"
   xmlns:inkscape="http://www.inkscape.org/namespaces/inkscape"
   xmlns:sodipodi="http://sodipodi.sourceforge.net/DTD/sodipodi-0.dtd"
   xmlns:xlink="http://www.w3.org/1999/xlink"
   xmlns="http://www.w3.org/2000/svg"
   xmlns:svg="http://www.w3.org/2000/svg"
   xmlns:rdf="http://www.w3.org/1999/02/22-rdf-syntax-ns#"
   xmlns:cc="http://creativecommons.org/ns#"
   xmlns:dc="http://purl.org/dc/elements/1.1/">
  <sodipodi:namedview
     id="namedview20"
     pagecolor="#ffffff"
     bordercolor="#000000"
     borderopacity="0.25"
     inkscape:showpageshadow="2"
     inkscape:pageopacity="0.0"
     inkscape:pagecheckerboard="0"
     inkscape:deskcolor="#d1d1d1"
     showgrid="false"
     inkscape:zoom="5.3045455"
     inkscape:cx="84.927164"
     inkscape:cy="140.16281"
     inkscape:window-width="1886"
     inkscape:window-height="1211"
     inkscape:window-x="1392"
     inkscape:window-y="13"
     inkscape:window-maximized="0"
     inkscape:current-layer="g20" />
  <defs
     id="defs7">
    <linearGradient
       id="linearGradient5124"
       x1="220.34"
       x2="272.34"
       y1="437.69"
       y2="437.69"
       gradientTransform="matrix(.80184 .21485 -.21485 .80184 -64.832 -39.717)"
       gradientUnits="userSpaceOnUse"
       xlink:href="#linearGradient4839" />
    <linearGradient
       id="linearGradient4839">
      <stop
         stop-color="#f8f8f8"
         offset="0"
         id="stop1" />
      <stop
         stop-color="#c4c4c4"
         offset="1"
         id="stop2" />
    </linearGradient>
    <linearGradient
       id="linearGradient5126"
       x1="588.35"
       x2="536.34"
       y1="410.41"
       y2="410.41"
       gradientTransform="matrix(.80184 .21485 -.21485 .80184 -64.832 -39.717)"
       gradientUnits="userSpaceOnUse"
       xlink:href="#linearGradient4839" />
    <linearGradient
       id="linearGradient5128"
       x1="327"
       x2="195"
       y1="162.32"
       y2="161.72"
       gradientTransform="matrix(.80184 .21485 -.21485 .80184 49.143 206.34)"
       gradientUnits="userSpaceOnUse">
      <stop
         stop-color="#f2f2f2"
         offset="0"
         id="stop3" />
      <stop
         stop-color="#a6a6a6"
         offset="1"
         id="stop4" />
    </linearGradient>
    <linearGradient
       id="linearGradient5130"
       x1="63"
       x2="195"
       y1="206.91"
       y2="206.91"
       gradientTransform="matrix(.80184 .21485 -.21485 .80184 49.143 206.34)"
       gradientUnits="userSpaceOnUse">
      <stop
         stop-color="#f8f8f8"
         offset="0"
         id="stop5" />
      <stop
         stop-color="#c4c4c4"
         offset=".83333"
         id="stop6" />
      <stop
         stop-color="#9b9b9b"
         offset="1"
         id="stop7" />
    </linearGradient>
    <linearGradient
       id="linearGradient5132"
       x1="299.09"
       x2="67.058"
       y1="159.1"
       y2="159.1"
       gradientTransform="matrix(.80184 .21485 -.21485 .80184 49.143 206.34)"
       gradientUnits="userSpaceOnUse"
       xlink:href="#linearGradient4839" />
  </defs>
  <metadata
     id="metadata7">
    <rdf:RDF>
      <cc:Work
         rdf:about="">
        <dc:format>image/svg+xml</dc:format>
        <dc:type
           rdf:resource="http://purl.org/dc/dcmitype/StillImage" />
        <dc:title />
      </cc:Work>
    </rdf:RDF>
  </metadata>
  <g
     transform="translate(90.008 -730.43)"
     id="g20">
    <g
       transform="matrix(.39043 0 0 .39043 -70.168 664.23)"
       id="g19">
      <path
         d="m-29.431 503.79 146.26 75.38 164.36 7.85 74.64-278.55-164.36-7.85-146.26-75.38c-24.883 92.85-49.762 185.7-74.641 278.55zm0 0 146.26 75.38 164.36 7.85 74.64-278.55-164.36-7.85-146.26-75.38c-24.883 92.85-49.762 185.7-74.641 278.55zm0 0 146.26 75.38 164.36 7.85 74.64-278.55-164.36-7.85-146.26-75.38c-24.883 92.85-49.762 185.7-74.641 278.55zm0 0 74.637-278.55c-24.879 92.85-49.758 185.7-74.637 278.55zm310.62 83.23 74.64-278.55zm-310.63-83.23 146.27 75.38zm146.27 75.38 164.36 7.85z"
         fill="#ff7e28"
         stroke="#ff7e28"
         stroke-linecap="round"
         stroke-linejoin="round"
         stroke-miterlimit="20"
         stroke-width="7.0773"
         id="path7" />
      <g
         fill="#e6e6e6"
         stroke-width=".70773"
         id="g10">
        <path
           d="m-19.789 498.9 45.993-4.86 92.956 76.47 118.73-19.75 37.4 27.21c23.63-88.21 47.27-176.41 70.9-264.61l-37.4-27.21-118.73 19.75-92.955-76.47-45.993 4.86c-23.633 88.21-47.267 176.41-70.901 264.61z"
           id="path8" />
        <path
           d="m-19.789 498.9 138.95 71.61 156.13 7.46c23.63-88.21 47.27-176.41 70.9-264.61l-37.4-27.21-118.73 19.75-92.955-76.47-45.993 4.86c-23.633 88.21-47.267 176.41-70.901 264.61z"
           id="path9" />
        <path
           d="m-19.789 498.9 45.993-4.86 92.956 76.47 118.73-19.75 37.4 27.21c23.63-88.21 47.27-176.41 70.9-264.61l-37.4-27.21-118.73 19.75-92.955-76.47-45.993 4.86c-23.633 88.21-47.267 176.41-70.901 264.61z"
           id="path10" />
      </g>
      <g
         stroke-width=".70773"
         id="g18">
        <path
           d="m-19.789 498.9 45.993-4.86 70.901-264.61-45.993 4.86c-23.633 88.21-47.267 176.41-70.901 264.61z"
           fill="url(#linearGradient5124)"
           id="path11" />
        <path
           d="m237.89 550.76 37.4 27.21c23.63-88.21 47.27-176.41 70.9-264.61l-37.4-27.21z"
           fill="url(#linearGradient5126)"
           id="path12" />
        <path
           d="m26.204 494.04s33.405 13.24 56.642 32.36c23.234 19.12 36.314 44.11 36.314 44.11s23.81-15.11 53.49-20.04c29.69-4.94 65.24 0.29 65.24 0.29l70.9-264.61s-35.55-5.23-65.24-0.29c-29.68 4.94-53.49 20.04-53.49 20.04s-13.07-24.99-36.31-44.1c-23.24-19.12-56.645-32.37-56.645-32.37z"
           fill="#e6e6e6"
           id="path13" />
        <path
           d="m190.05 305.9-70.9 264.61s23.81-15.11 53.5-20.05c29.68-4.93 65.23 0.3 65.23 0.3l70.91-264.61s-35.56-5.23-65.24-0.29c-29.68 4.93-53.5 20.04-53.5 20.04z"
           fill="url(#linearGradient5128)"
           id="path14" />
        <path
           d="m97.1 229.43-70.901 264.6s33.405 13.25 56.643 32.37 36.308 44.11 36.308 44.11l70.9-264.61s-13.07-24.99-36.31-44.11c-23.23-19.11-56.64-32.36-56.64-32.36z"
           fill="url(#linearGradient5130)"
           id="path15" />
        <path
           d="m26.199 494.04-45.993 4.86 138.94 71.61s-0.83-1.56-2.42-4.2-3.93-6.37-7.02-10.69c-1.54-2.16-3.27-4.46-5.17-6.86s-3.97-4.87-6.213-7.39c-2.246-2.51-4.678-5.07-7.26-7.58-2.581-2.51-5.321-5-8.226-7.39-2.904-2.39-5.978-4.68-9.115-6.87-3.138-2.19-6.355-4.28-9.554-6.24-3.2-1.97-6.387-3.81-9.479-5.52s-6.073-3.3-8.887-4.72c-5.628-2.85-10.521-5.09-14.016-6.63-3.494-1.54-5.591-2.38-5.591-2.38z"
           fill="#b3b3b3"
           id="path16" />
        <path
           d="m119.15 570.51 156.13 7.46-37.4-27.21s-2.23-0.32-6.03-0.73c-3.8-0.42-9.15-0.93-15.45-1.27-3.15-0.17-6.53-0.29-10.06-0.36-3.53-0.06-7.21-0.06-10.97 0.04-3.75 0.11-7.58 0.3-11.39 0.63s-7.62 0.78-11.33 1.39c-3.71 0.62-7.33 1.4-10.82 2.29-3.49 0.88-6.88 1.88-10.08 2.94-3.2 1.05-6.23 2.16-9.07 3.29-2.85 1.12-5.5 2.26-7.91 3.36-4.83 2.19-8.73 4.25-11.43 5.74-2.69 1.5-4.19 2.43-4.19 2.43z"
           fill="#b3b3b3"
           id="path17" />
        <path
           d="m190.05 305.9-70.9 264.61s14.46-31.31 41.02-41.65c26.57-10.34 65.24 0.29 65.24 0.29l70.9-264.61s-38.67-10.63-65.24-0.29c-26.56 10.34-41.02 41.65-41.02 41.65z"
           fill="url(#linearGradient5132)"
           id="path18" />
      </g>
    </g>
    <path
       d="m 46.564,934.39 c 0,-1.03107 0.154663,-1.92957 0.46399,-2.6955 0.324053,-0.78067 0.743853,-1.42877 1.2594,-1.9443 0.515547,-0.51553 1.104747,-0.90587 1.7676,-1.171 0.6776,-0.26513 1.3699,-0.3977 2.0769,-0.3977 1.649733,0 2.9533,0.50817 3.9107,1.5245 0.957467,1.0016 1.4362,2.48193 1.4362,4.441 0,0.19148 -0.0074,0.40506 -0.0221,0.64075 -0.01473,0.22094 -0.02947,0.41979 -0.0442,0.59654 h -7.468 c 0.07365,0.6776 0.390333,1.21523 0.95006,1.6129 0.559733,0.39771 1.310933,0.59656 2.2536,0.59656 0.60392,0 1.19312,-0.0516 1.7676,-0.15466 0.589187,-0.11784 1.06792,-0.25778 1.4362,-0.41981 l 0.44189,2.6734 c -0.17676,0.0884 -0.412437,0.17676 -0.70703,0.26514 -0.294593,0.0884 -0.626013,0.16203 -0.99426,0.22094 -0.353513,0.0737 -0.73648,0.13257 -1.1489,0.17676 -0.412433,0.0442 -0.824867,0.0663 -1.2373,0.0663 -1.0458,0 -1.959033,-0.15466 -2.7397,-0.46399 -0.765933,-0.30933 -1.406667,-0.72913 -1.9222,-1.2594 -0.500813,-0.545 -0.876413,-1.18573 -1.1268,-1.9222 -0.23568,-0.73647 -0.35352,-1.53187 -0.35352,-2.3862 z m 7.7331,-1.2594 c -0.01473,-0.27987 -0.06629,-0.55237 -0.15466,-0.8175 -0.07365,-0.26515 -0.198857,-0.50083 -0.37561,-0.70704 -0.162027,-0.20621 -0.37561,-0.3756 -0.64075,-0.50817 -0.2504,-0.13257 -0.567087,-0.19885 -0.95006,-0.19885 -0.368247,0 -0.684937,0.0663 -0.95007,0.19885 -0.265133,0.11783 -0.48608,0.27986 -0.66284,0.48608 -0.176753,0.20622 -0.316687,0.44926 -0.4198,0.72913 -0.08837,0.26513 -0.154657,0.53763 -0.19885,0.8175 z m -20.213,-4.2422 c 0.559733,-0.16203 1.2815,-0.30933 2.1653,-0.4419 0.8838,-0.14729 1.811767,-0.22093 2.7839,-0.22093 0.986867,0 1.804367,0.13256 2.4525,0.39769 0.66284,0.25041 1.18574,0.61128 1.5687,1.0826 0.382973,0.47135 0.655473,1.03109 0.8175,1.6792 0.162027,0.64811 0.24304,1.36988 0.24304,2.1653 v 6.5621 h -3.2921 v -6.1644 c 0,-1.06053 -0.13993,-1.81173 -0.41979,-2.2536 -0.279867,-0.44189 -0.802767,-0.66284 -1.5687,-0.66284 -0.235673,0 -0.48608,0.0147 -0.75122,0.0442 -0.265133,0.0147 -0.500807,0.0368 -0.70702,0.0663 v 8.9704 h -3.2921 z m -3.0946,11.224 h -3.2921 v -11.622 h 3.2921 z m 0.30932,-14.98 c 0,0.60393 -0.19885,1.08266 -0.59655,1.4362 -0.382973,0.33879 -0.839607,0.50818 -1.3699,0.50818 -0.530267,0 -0.994267,-0.16939 -1.392,-0.50818 -0.382973,-0.35351 -0.57446,-0.83224 -0.57446,-1.4362 0,-0.60391 0.191487,-1.07525 0.57446,-1.414 0.3977,-0.35353 0.8617,-0.53029 1.392,-0.53029 0.530273,0 0.986907,0.17676 1.3699,0.53029 0.3977,0.33878 0.59655,0.81011 0.59655,1.414 z m -5.9524,15.201 c -0.957467,-0.0147 -1.738133,-0.11784 -2.342,-0.30932 -0.589187,-0.19148 -1.06052,-0.45661 -1.414,-0.79539 -0.338787,-0.35353 -0.574463,-0.77333 -0.70703,-1.2594 -0.11784,-0.50081 -0.17676,-1.06055 -0.17676,-1.6792 v -12.793 l 3.2921,-0.53027 v 12.66 c 0,0.29459 0.0221,0.55972 0.0663,0.79541 0.0442,0.23567 0.125213,0.43452 0.24304,0.59654 0.132567,0.16203 0.316687,0.2946 0.55236,0.39771 0.23568,0.1031 0.55237,0.16938 0.95007,0.19885 z m -17.672,-11.445 c 0.5597267,-0.16203 1.2814933,-0.30933 2.1653,-0.4419 0.8838,-0.14729 1.811767,-0.22093 2.7839,-0.22093 0.986867,0 1.804367,0.13256 2.4525,0.39769 0.662833,0.25041 1.185733,0.61128 1.5687,1.0826 0.382973,0.47135 0.655473,1.03109 0.8175,1.6792 0.162027,0.64811 0.24304,1.36988 0.24304,2.1653 v 6.5621 h -3.2921 v -6.1644 c 0,-1.06053 -0.139933,-1.81173 -0.4198,-2.2536 -0.279867,-0.44189 -0.802767,-0.66284 -1.5687,-0.66284 -0.23568,0 -0.486087,0.0147 -0.75122,0.0442 -0.265133,0.0147 -0.50081,0.0368 -0.70703,0.0663 v 8.9704 h -3.2921 z m -14.319,3.5572 c 0,0.7512 0.08838,1.42877 0.26514,2.0327 0.1914867,0.60391 0.45662,1.12681 0.7954,1.5687 0.3535133,0.42717 0.78068,0.75859 1.2815,0.99426 0.50082,0.23567 1.0752867,0.35351 1.7234,0.35351 0.63338,0 1.20048,-0.11784 1.7013,-0.35351 0.51554,-0.23567 0.94270667,-0.56709 1.2815,-0.99426 0.35351333,-0.44189 0.6186467,-0.96479 0.7954,-1.5687 0.1914867,-0.60393 0.28723,-1.28149 0.28723,-2.0327 0,-0.7512 -0.095743,-1.42877 -0.28723,-2.0327 -0.1767533,-0.61865 -0.44188667,-1.14155 -0.7954,-1.5687 -0.33878667,-0.44189 -0.76595333,-0.78069 -1.2815,-1.0164 -0.5008067,-0.23568 -1.0679067,-0.35352 -1.7013,-0.35352 -0.6481067,0 -1.2225733,0.12521 -1.7234,0.37563 -0.5008133,0.23567 -0.92798,0.57447 -1.2815,1.0164 -0.33878,0.42716 -0.6039133,0.95006 -0.7954,1.5687 -0.17676,0.60393 -0.26514,1.27413 -0.26514,2.0106 z m 11.688,0 c 0,1.31093 -0.19885,2.46723 -0.59655,3.4689 -0.3829733,0.98687 -0.91324,1.8191 -1.5908,2.4967 -0.6776,0.66283 -1.4877333,1.16363 -2.4304,1.5024 -0.928,0.33879 -1.9296333,0.50818 -3.0049,0.50818 -1.0458,0 -2.0327,-0.16939 -2.9607,-0.50818 -0.928,-0.33879 -1.7381333,-0.83959 -2.4304,-1.5024 -0.6922667,-0.6776 -1.2372667,-1.50983 -1.635,-2.4967 -0.3977,-1.0016 -0.59655,-2.1579 -0.59655,-3.4689 0,-1.31093 0.2062133,-2.45983 0.61864,-3.4467 0.4124333,-1.0016 0.9648,-1.8412 1.6571,-2.5188 0.707,-0.6776 1.5171333,-1.18577 2.4304,-1.5245 0.928,-0.33879 1.9001667,-0.50818 2.9165,-0.50818 1.0458,0 2.0327,0.16939 2.9607,0.50818 0.928,0.33878 1.7381333,0.84695 2.4304,1.5245 0.6922667,0.6776 1.2372667,1.5172 1.635,2.5188 0.3977,0.98687 0.59655,2.13577 0.59655,3.4467 z m -30.64,1.7676 c 0,1.01633 0.228313,1.83383 0.68494,2.4525 0.45662,0.61865 1.134187,0.92798 2.0327,0.92798 0.294593,0 0.567093,-0.007 0.8175,-0.0221 0.2504,-0.0295 0.456617,-0.0589 0.61865,-0.0884 v -5.9876 c -0.20622,-0.13257 -0.47872,-0.24304 -0.8175,-0.33141 -0.32406,-0.0884 -0.65548,-0.13258 -0.99426,-0.13258 -1.561333,0 -2.342,1.06053 -2.342,3.1816 z m 7.4459,5.5236 c -0.294593,0.0884 -0.633393,0.17675 -1.0164,0.26512 -0.382973,0.0736 -0.78804,0.13994 -1.2152,0.19886 -0.412433,0.0589 -0.8396,0.10312 -1.2815,0.13256 -0.42716,0.0442 -0.839593,0.0663 -1.2373,0.0663 -0.957467,0 -1.8118,-0.13993 -2.563,-0.4198 -0.7512,-0.27986 -1.384567,-0.67756 -1.9001,-1.1931 -0.51554,-0.53027 -0.91324,-1.16363 -1.1931,-1.9001 -0.265133,-0.7512 -0.3977,-1.5908 -0.3977,-2.5188 0,-0.94267 0.117837,-1.78963 0.35351,-2.5409 0.235673,-0.76593 0.574473,-1.41403 1.0164,-1.9443 0.441893,-0.53027 0.979527,-0.93533 1.6129,-1.2152 0.648113,-0.27987 1.384613,-0.41981 2.2095,-0.41981 0.456627,0 0.861693,0.0442 1.2152,0.13258 0.36824,0.0884 0.736473,0.21358 1.1047,0.3756 v -5.2585 l 3.2921,-0.53026 z m -18.023,-1.9222 c 0.324053,0 0.633377,-0.007 0.92797,-0.0221 0.294593,-0.0147 0.53027,-0.0368 0.70703,-0.0663 v -2.4967 c -0.132567,-0.0295 -0.33142,-0.0589 -0.59656,-0.0884 -0.26514,-0.0295 -0.50818,-0.0442 -0.72912,-0.0442 -0.309327,0 -0.60392,0.0221 -0.88378,0.0663 -0.265133,0.0295 -0.50081,0.0958 -0.70703,0.19885 -0.20622,0.10311 -0.36825,0.24305 -0.48609,0.41981 -0.117833,0.17675 -0.17675,0.39769 -0.17675,0.66284 0,0.51553 0.169393,0.87639 0.50818,1.0826 0.353513,0.19149 0.832247,0.28723 1.4362,0.28723 z m -0.26514,-9.6332 c 0.972133,0 1.782267,0.11047 2.4304,0.33142 0.648133,0.22095 1.163667,0.53763 1.5466,0.95006 0.397707,0.41243 0.677573,0.91323 0.8396,1.5024 0.162027,0.5892 0.24304,1.24467 0.24304,1.9664 v 6.8493 c -0.471353,0.10311 -1.12682,0.22094 -1.9664,0.35351 -0.8396,0.14729 -1.855967,0.22094 -3.0491,0.22094 -0.7512,0 -1.436133,-0.0663 -2.0548,-0.19885 -0.60392,-0.13257 -1.12682,-0.34615 -1.5687,-0.64075 -0.441893,-0.30932 -0.780693,-0.70702 -1.0164,-1.1931 -0.235667,-0.48607 -0.3535,-1.08264 -0.3535,-1.7897 0,-0.6776 0.132567,-1.25207 0.3977,-1.7234 0.27986,-0.47136 0.648093,-0.84696 1.1047,-1.1268 0.456613,-0.27987 0.979513,-0.47873 1.5687,-0.59656 0.589187,-0.13257 1.200453,-0.19885 1.8338,-0.19885 0.427167,0 0.802767,0.0221 1.1268,0.0663 0.338787,0.0295 0.61129,0.0737 0.81751,0.13255 v -0.30933 c 0,-0.55973 -0.169393,-1.00899 -0.50818,-1.3478 -0.33878,-0.33877 -0.92798,-0.50816 -1.7676,-0.50816 -0.559733,0 -1.1121,0.0442 -1.6571,0.13256 -0.544993,0.0737 -1.016327,0.18413 -1.414,0.33142 l -0.41981,-2.6514 c 0.191493,-0.0589 0.42717,-0.11785 0.70703,-0.17675 0.2946,-0.0737 0.61129,-0.13257 0.95007,-0.17675 0.33878,-0.0589 0.69228,-0.10313 1.0605,-0.13258 0.382973,-0.0442 0.76594,-0.0663 1.1489,-0.0663 z m -17.631,6.2086 c 0,-1.03107 0.154663,-1.92957 0.46399,-2.6955 0.324053,-0.78067 0.743853,-1.42877 1.2594,-1.9443 0.515547,-0.51553 1.104747,-0.90587 1.7676,-1.171 0.6776,-0.26513 1.3699,-0.3977 2.0769,-0.3977 1.649733,0 2.9533,0.50817 3.9107,1.5245 0.957467,1.0016 1.4362,2.48193 1.4362,4.441 0,0.19148 -0.0074,0.40506 -0.0221,0.64075 -0.01473,0.22094 -0.02947,0.41979 -0.0442,0.59654 h -7.468 c 0.07365,0.6776 0.390333,1.21523 0.95006,1.6129 0.559733,0.39771 1.310933,0.59656 2.2536,0.59656 0.60392,0 1.19312,-0.0516 1.7676,-0.15466 0.589187,-0.11784 1.06792,-0.25778 1.4362,-0.41981 l 0.44189,2.6734 c -0.17676,0.0884 -0.412437,0.17676 -0.70703,0.26514 -0.294593,0.0884 -0.62601,0.16203 -0.99425,0.22094 -0.353513,0.0737 -0.73648,0.13257 -1.1489,0.17676 -0.412433,0.0442 -0.824867,0.0663 -1.2373,0.0663 -1.0458,0 -1.959033,-0.15466 -2.7397,-0.46399 -0.765933,-0.30933 -1.406667,-0.72913 -1.9222,-1.2594 -0.500807,-0.545 -0.876407,-1.18573 -1.1268,-1.9222 -0.23568,-0.73647 -0.35352,-1.53187 -0.35352,-2.3862 z m 7.7331,-1.2594 c -0.01473,-0.27987 -0.06629,-0.55237 -0.15466,-0.8175 -0.07365,-0.26515 -0.198857,-0.50083 -0.37561,-0.70704 -0.162027,-0.20621 -0.375607,-0.3756 -0.64074,-0.50817 -0.250407,-0.13257 -0.567097,-0.19885 -0.95007,-0.19885 -0.368247,0 -0.684937,0.0663 -0.95007,0.19885 -0.265133,0.11783 -0.48608,0.27986 -0.66284,0.48608 -0.176753,0.20622 -0.316683,0.44926 -0.41979,0.72913 -0.08838,0.26513 -0.154667,0.53763 -0.19886,0.8175 z m -16.672,-8.5064 c 2.297867,0 4.058067,0.41243 5.2806,1.2373 1.222533,0.81013 1.8338,2.0769 1.8338,3.8003 0,1.07527 -0.250403,1.95167 -0.75121,2.6292 -0.486087,0.66285 -1.19312,1.18575 -2.1211,1.5687 0.30932,0.38297 0.633373,0.82487 0.97216,1.3257 0.33878,0.48608 0.670197,1.00161 0.99425,1.5466 0.338787,0.53027 0.662843,1.09001 0.97217,1.6792 0.30932,0.57446 0.596547,1.14156 0.86168,1.7013 h -3.8666 c -0.279867,-0.50081 -0.567097,-1.00898 -0.86169,-1.5245 -0.27986,-0.51554 -0.574453,-1.01634 -0.88378,-1.5024 -0.294593,-0.48609 -0.589187,-0.94272 -0.88378,-1.3699 -0.2946,-0.44189 -0.589197,-0.83959 -0.88379,-1.1931 h -1.7013 v 5.5899 h -3.4468 v -15.091 c 0.7512,-0.14729 1.5245,-0.2504 2.3199,-0.30931 0.810133,-0.0589 1.5319,-0.0884 2.1653,-0.0884 z m 0.19886,2.9386 c -0.250407,0 -0.47872,0.007 -0.68494,0.0221 -0.191487,0.0147 -0.375607,0.0295 -0.55236,0.0442 v 4.1538 h 0.97216 c 1.2962,0 2.224167,-0.16203 2.7839,-0.48608 0.559727,-0.32404 0.83959,-0.87641 0.83959,-1.6571 0,-0.7512 -0.28723,-1.28147 -0.86169,-1.5908 -0.559727,-0.32406 -1.39196,-0.48609 -2.4967,-0.48609 z"
       dominant-baseline="auto"
       fill-rule="evenodd"
       style="font-variant-ligatures:normal;font-variant-position:normal;font-variant-caps:normal;font-variant-numeric:normal;font-variant-alternates:normal;font-feature-settings:normal;text-indent:0;text-decoration-line:none;text-decoration-style:solid;text-decoration-color:#000000;text-transform:none;text-orientation:mixed;white-space:normal;shape-padding:0;display:none;paint-order:normal"
       id="path19"
       sodipodi:nodetypes="ccscscscccsscccscsscccccccccscscccccscsssccsssccccccccccscscscscsccccsccsscsccccscsssccssscccccsccsscccscccscccssscccssccscccssscsssssccccsssccccssccscscsccccccsccsscsssccccscssccsccsscscsccsssccccccccccscscscccsscccscsscccccccccscscccccsccccccccccccccccccccccsssccc" />
    <text
       xml:space="preserve"
       style="font-style:normal;font-variant:normal;font-weight:normal;font-stretch:normal;font-size:24px;font-family:sans-serif;-inkscape-font-specification:'sans-serif, Normal';font-variant-ligatures:normal;font-variant-caps:normal;font-variant-numeric:normal;font-variant-east-asian:normal;text-align:start;writing-mode:lr-tb;direction:ltr;text-anchor:start;fill:#000000;fill-opacity:1"
       x="-79.828049"
       y="931.95526"
       id="text20"><tspan
         sodipodi:role="line"
         id="tspan20"
         x="-79.828049"
         y="931.95526">Läs på nätet</tspan></text>
    <text
       xml:space="preserve"
       style="font-style:normal;font-variant:normal;font-weight:normal;font-stretch:normal;font-size:37.3333px;font-family:sans-serif;-inkscape-font-specification:'sans-serif, Normal';font-variant-ligatures:normal;font-variant-caps:normal;font-variant-numeric:normal;font-variant-east-asian:normal;text-align:start;writing-mode:lr-tb;direction:ltr;text-anchor:start;fill:#000000;fill-opacity:1"
       x="23.479572"
       y="906.12836"
       id="text21"><tspan
         sodipodi:role="line"
         id="tspan21"
         x="23.479572"
         y="906.12836" /></text>
  </g>
</svg>
